# xmcd CD database file
# Copyright (C) 1993-1998 Ti Kan
#
# Track frame offsets:
#	180
#	18991
#	36655
#	53935
#	73326
#	86143
#	104588
#	117763
#	138817
#	162031
#	182477
#	212533
#	230966
#	248529
#
# Disc length: 3667 seconds
#
# Revision: 1
# Processed by: cddbd v1.4b41PL1 Copyright (c) Steve Scherf et al.
# Submitted via: CDValet v3.31 - Copyright (c) 1997 Greg Leichner
#
DISCID=c40e510e
DTITLE=Bennie and The Amazing 20 Fingers - Dog Songs
DYEAR=1900
DGENRE=
TTITLE0=Emrgnc
TTITLE1=Spare Me The Details
TTITLE2=Free Ride
TTITLE3=A Good Year For The Roses
TTITLE4=1000 Miles
TTITLE5=Hey You
TTITLE6=You Get Your Ass Fucked
TTITLE7=Till The Morning (Without Warning)
TTITLE8=Songs For Joeps
TTITLE9=How Could We Go Trough This Again
TTITLE10=Rivers Of Time
TTITLE11=Wrong Side Of Glory
TTITLE12=The Dog Fuck
TTITLE13=Like A Rolling Stone
EXTD=TOMBOX - 005
EXTT0=
EXTT1=
EXTT2=
EXTT3=
EXTT4=
EXTT5=
EXTT6=
EXTT7=
EXTT8=
EXTT9=
EXTT10=
EXTT11=
EXTT12=
EXTT13=
PLAYORDER=
